<svg width="32px" height="19px" viewBox="0 0 32 19" version="1.1" xmlns="http://www.w3.org/2000/svg" xmlns:xlink="http://www.w3.org/1999/xlink">
    <g id="Page-1" stroke="none" stroke-width="1" fill="none" fill-rule="evenodd">
        <path d="M13.09113,5.04 L10.11513,5.952 C10.0031294,5.34399696 9.69913248,4.79200248 9.20313,4.296 C8.70712752,3.79999752 7.9791348,3.552 7.01913,3.552 C6.23512608,3.552 5.59513248,3.76399788 5.09913,4.188 C4.60312752,4.61200212 4.35513,5.11999704 4.35513,5.712 C4.35513,6.7520052 4.97112384,7.3919988 6.20313,7.632 L8.57913,8.088 C10.0831375,8.37600144 11.2511258,8.97599544 12.08313,9.888 C12.9151342,10.8000046 13.33113,11.8719938 13.33113,13.104 C13.33113,14.512007 12.7751356,15.7399948 11.66313,16.788 C10.5511244,17.8360052 9.05913936,18.36 7.18713,18.36 C6.11512464,18.36 5.14713432,18.2000016 4.28313,17.88 C3.41912568,17.5599984 2.72313264,17.1320027 2.19513,16.596 C1.66712736,16.0599973 1.25513148,15.492003 0.95913,14.892 C0.66312852,14.291997 0.48313032,13.6720032 0.41913,13.032 L3.49113,12.216 C3.5711304,13.1280046 3.92712684,13.887997 4.55913,14.496 C5.19113316,15.104003 6.07512432,15.408 7.21113,15.408 C8.07513432,15.408 8.75112756,15.2160019 9.23913,14.832 C9.72713244,14.4479981 9.97113,13.9440031 9.97113,13.32 C9.97113,12.8239975 9.7911318,12.3960018 9.43113,12.036 C9.0711282,11.6759982 8.56313328,11.4320006 7.90713,11.304 L5.53113,10.824 C4.15512312,10.5359986 3.067134,9.96800424 2.26713,9.12 C1.467126,8.27199576 1.06713,7.21600632 1.06713,5.952 C1.06713,4.44799248 1.6471242,3.18400512 2.80713,2.16 C3.9671358,1.13599488 5.36312184,0.624 6.99513,0.624 C7.97113488,0.624 8.84312616,0.75999864 9.61113,1.032 C10.3791338,1.30400136 10.9951277,1.66799772 11.45913,2.124 C11.9231323,2.58000228 12.2831287,3.0479976 12.53913,3.528 C12.7951313,4.0080024 12.9791294,4.51199736 13.09113,5.04 Z M22.605565,8.736 L25.221565,8.736 C26.0375691,8.736 26.6855626,8.5160022 27.165565,8.076 C27.6455674,7.6359978 27.885565,7.04800368 27.885565,6.312 C27.885565,5.55999624 27.6495674,4.9640022 27.177565,4.524 C26.7055626,4.0839978 26.0535692,3.864 25.221565,3.864 L22.605565,3.864 L22.605565,8.736 Z M25.629565,11.592 L22.581565,11.592 L22.581565,18 L19.269565,18 L19.269565,0.984 L25.629565,0.984 C27.2935733,0.984 28.6415598,1.47999504 29.673565,2.472 C30.7055702,3.46400496 31.221565,4.73599224 31.221565,6.288 C31.221565,7.84000776 30.7055702,9.11199504 29.673565,10.104 C28.6415598,11.096005 27.2935733,11.592 25.629565,11.592 Z" id="SP" fill="currentColor"></path>
    </g>
</svg>